# Blender v2.72 (sub 0) OBJ File: ''
# www.blender.org
o asteroid1
v 0.534059 0.356663 -0.235744
v 0.485066 0.497484 -0.019453
v 0.606265 0.345240 -0.007845
v 0.791996 0.226867 -0.123995
v 0.816145 0.268422 0.083399
v 0.800195 0.007616 -0.448704
v 0.044472 0.080144 -0.878110
v 0.349089 -0.093156 -0.798430
v 0.061950 -0.248656 -0.901014
v -0.003619 0.336595 -0.728650
v 0.286305 0.195111 -0.717290
v 0.545449 0.024944 -0.687968
v 0.470544 0.276431 -0.536877
v 0.187601 0.417143 -0.555243
v 0.324249 0.452376 -0.379781
v -0.036647 0.573599 -0.583019
v 0.588433 -0.256243 -0.638340
v -0.045227 0.741155 -0.359270
v 0.160666 0.603287 -0.393085
v -0.024999 0.893213 -0.158420
v 0.195842 0.788553 -0.219330
v 0.383041 0.591614 -0.217887
v 0.163276 0.850217 -0.018959
v 0.374648 0.715356 0.000738
v 0.640977 0.027287 0.599508
v 0.284513 0.074252 0.704489
v 0.254192 -0.193057 0.740761
v 0.021298 0.049702 0.836998
v 0.011549 0.410912 0.819019
v 0.228356 0.503646 0.673184
v 0.000098 0.637572 0.631866
v 0.259656 0.272272 0.800868
v 0.410383 0.221177 0.654243
v 0.386180 0.380080 0.657243
v 1.039494 0.095108 -0.033987
v 0.611016 0.417302 0.152854
v 0.822088 0.326944 0.224614
v 1.034164 0.186483 0.190656
v 1.072452 0.067342 0.377501
v 1.211364 -0.043918 0.165093
v 0.871821 0.284764 0.395025
v -0.017489 0.932732 0.102269
v 0.244353 0.882757 0.206282
v 0.263628 0.665448 0.435504
v -0.011135 0.837704 0.395361
v 0.416772 0.699403 0.226556
v 0.690263 0.405520 0.320673
v 0.580827 0.359492 0.524024
v 0.486648 0.576181 0.136084
v 0.492646 0.521041 0.326726
v 0.425297 0.526525 0.548379
v 0.041712 -0.612078 -0.954024
v 0.285629 -0.756418 -0.858454
v 0.030251 -0.955438 -0.938288
v 0.243091 -0.992562 -0.760633
v 0.301287 -0.411683 -0.803846
v 0.518744 -0.561655 -0.737554
v 0.804282 -0.743812 -0.261500
v 0.733635 -0.573913 -0.512713
v 1.084298 -0.529844 -0.177936
v 0.862647 -0.312695 -0.445485
v 1.171755 -0.179107 -0.132833
v 0.738048 -0.187346 -0.522961
v 0.013764 -1.143139 -0.417542
v 0.276190 -1.110015 -0.252039
v 0.020841 -1.057710 0.068704
v 0.017298 -1.121994 -0.750824
v 0.438104 -1.026807 -0.557927
v 0.206392 -1.111990 -0.588883
v 0.874665 -0.779442 0.042460
v 0.571490 -0.927834 -0.156782
v 0.660842 -0.841401 -0.478891
v 0.514105 -0.808371 -0.688905
v 1.102997 -0.268007 0.467865
v 1.096001 -0.602583 0.260727
v 1.277283 -0.293708 0.133839
v 0.030229 -0.203001 0.807232
v 0.340183 -0.560066 0.615855
v 0.643951 -0.340462 0.664844
v 0.049644 -0.437448 0.825486
v 0.037792 -0.744175 0.632426
v 0.355458 -1.013893 0.068354
v 0.588928 -0.894397 0.181915
v 0.301206 -0.968445 0.301493
v 0.027790 -0.978272 0.410303
v 0.259526 -0.849514 0.501166
v 0.544466 -0.813615 0.434208
v 0.820630 -0.793921 0.318778
v 0.820627 -0.616646 0.522950
v -0.911893 0.450585 -0.034428
v -0.702976 0.594087 -0.049039
v -0.871364 0.450393 -0.353560
v -1.049210 0.321290 0.127640
v -1.066023 0.281241 -0.145056
v -0.900224 0.020779 -0.458253
v -0.213269 -0.087919 -0.906219
v -0.274466 0.158757 -0.812444
v -0.572743 -0.146253 -0.775892
v -0.623541 0.509690 -0.623786
v -0.299728 0.430922 -0.693350
v -0.619039 0.203052 -0.717929
v -0.743640 -0.250767 -0.597146
v -0.302728 0.703585 -0.540333
v -0.270116 0.816072 -0.252433
v -0.570399 0.708607 -0.324806
v -0.224743 0.922408 -0.032867
v -0.477673 0.796789 -0.002337
v -0.787345 0.287050 -0.584188
v -0.176019 -0.222908 0.761976
v -0.228253 0.028610 0.722376
v -0.478333 -0.110047 0.687240
v -0.217772 0.491386 0.685694
v -0.228589 0.251359 0.815157
v -0.374989 0.357050 0.675826
v -0.409236 0.154303 0.666208
v -1.225477 0.065747 0.031584
v -0.789925 0.474137 0.188491
v -0.943483 0.334670 0.317080
v -1.254802 -0.150629 0.293340
v -1.049005 0.010274 0.489286
v -1.136121 0.163806 0.316325
v -0.875115 0.251598 0.507690
v -0.274592 0.885483 0.237871
v -0.271213 0.653409 0.454934
v -0.470515 0.718001 0.254581
v -0.756749 0.421707 0.405256
v -0.578620 0.338393 0.559140
v -0.725719 0.063128 0.599378
v -0.619530 0.640185 0.154689
v -0.541881 0.519590 0.353564
v -0.421482 0.509640 0.573317
v -0.262365 -0.744662 -0.913051
v -0.249853 -1.016607 -0.795745
v -0.247258 -0.388629 -0.923104
v -0.502451 -0.488352 -0.816200
v -1.068540 -0.564301 0.059342
v -0.839492 -0.482303 -0.405100
v -0.809832 -0.729738 -0.117172
v -1.214637 -0.250186 -0.017594
v -0.244421 -1.096712 -0.243890
v -0.194807 -1.136593 -0.587225
v -0.429060 -0.988734 -0.507281
v -0.577374 -0.952706 -0.101230
v -0.844032 -0.792693 0.147402
v -0.667229 -0.796131 -0.375055
v -0.686945 -0.410835 -0.666185
v -0.571842 -0.740165 -0.684356
v -0.995911 -0.313024 0.546117
v -1.181761 -0.382751 0.259682
v -0.993964 -0.587441 0.333922
v -0.533258 -0.394649 0.705777
v -0.281524 -0.612958 0.657827
v -0.304689 -1.032645 0.088886
v -0.547452 -0.926319 0.233779
v -0.239395 -0.966557 0.306630
v -0.191893 -0.864625 0.506598
v -0.479223 -0.842197 0.458277
v -0.771817 -0.803297 0.373287
v -0.749774 -0.631138 0.541559
vt 0.000000 0.000000
vt 1.000000 0.000000
vt 1.000000 1.000000
vn 0.655300 0.682600 -0.323300
vn 0.812000 0.534000 -0.235300
vn 0.602400 0.758600 -0.248200
vn 0.517600 0.790000 -0.328700
vn 0.470600 0.827700 -0.305800
vn 0.661500 0.402500 -0.632700
vn 0.155400 0.320200 -0.934500
vn 0.412900 0.095900 -0.905700
vn 0.209200 0.072400 -0.975200
vn 0.186600 0.531300 -0.826300
vn 0.370200 0.511900 -0.775100
vn 0.551700 0.263300 -0.791400
vn 0.526600 0.671100 -0.521900
vn 0.444900 0.634400 -0.632100
vn 0.554800 0.633100 -0.539800
vn 0.301700 0.626600 -0.718500
vn 0.584000 0.016100 -0.811500
vn 0.217300 0.788400 -0.575400
vn 0.476800 0.609300 -0.633500
vn 0.133000 0.914200 -0.382900
vn 0.461400 0.748600 -0.476000
vn 0.708600 0.543200 -0.450200
vn 0.414600 0.883700 -0.217000
vn 0.733800 0.642700 -0.220100
vn 0.366300 0.208500 0.906800
vn 0.425600 -0.072900 0.901900
vn 0.322400 -0.026400 0.946200
vn 0.029100 -0.085700 0.995900
vn 0.012700 0.402500 0.915300
vn 0.344500 0.614600 0.709600
vn 0.001600 0.731700 0.681700
vn 0.451800 0.076300 0.888800
vn 0.522700 0.059300 0.850400
vn 0.550500 0.308800 0.775700
vn 0.660300 0.655800 -0.365900
vn 0.613400 0.760400 -0.213100
vn 0.508300 0.847400 -0.153400
vn 0.674600 0.736000 -0.055100
vn 0.697400 0.424400 0.577500
vn 0.912600 0.403900 0.063400
vn 0.558500 0.658000 0.504900
vn 0.092600 0.994500 0.048100
vn 0.456600 0.871600 0.178300
vn 0.447100 0.721800 0.528300
vn 0.016100 0.824400 0.565800
vn 0.763300 0.608300 0.217400
vn 0.471900 0.872000 0.129800
vn 0.547000 0.500500 0.671000
vn 0.839700 0.536600 -0.083500
vn 0.676400 0.701000 0.226100
vn 0.547400 0.671400 0.499500
vn 0.159000 0.039500 -0.986500
vn 0.464400 -0.144400 -0.873700
vn 0.107500 -0.443500 -0.889800
vn 0.470400 -0.618200 -0.629600
vn 0.419700 0.074700 -0.904600
vn 0.573000 0.017400 -0.819400
vn 0.660800 -0.679600 -0.318400
vn 0.721100 -0.204100 -0.662100
vn 0.782400 -0.442200 -0.438500
vn 0.655800 -0.016800 -0.754800
vn 0.841200 0.186100 -0.507600
vn 0.583500 0.107700 -0.804900
vn 0.015900 -0.998400 0.053000
vn 0.273700 -0.956500 0.100600
vn 0.011300 -0.975300 0.220400
vn 0.081000 -0.896400 -0.435700
vn 0.540000 -0.782400 -0.310000
vn 0.285300 -0.931200 -0.226700
vn 0.560000 -0.825300 -0.072800
vn 0.518700 -0.854900 0.008100
vn 0.753900 -0.559700 -0.343800
vn 0.632800 -0.358600 -0.686200
vn 0.685800 -0.031200 0.727100
vn 0.757000 -0.594700 0.270700
vn 0.993100 -0.108000 0.045300
vn 0.034800 -0.019700 0.999200
vn 0.252600 -0.394100 0.883600
vn 0.255000 -0.108900 0.960800
vn 0.083900 -0.232200 0.969000
vn 0.070700 -0.572400 0.816900
vn 0.296600 -0.935100 0.193700
vn 0.357500 -0.915400 0.184900
vn 0.235900 -0.903400 0.358100
vn 0.011000 -0.874700 0.484500
vn 0.233600 -0.646800 0.725900
vn 0.246400 -0.733200 0.633700
vn 0.436900 -0.831800 0.342400
vn 0.390600 -0.486000 0.781800
vn -0.619900 0.783700 0.038300
vn -0.637000 0.768800 0.055800
vn -0.752100 0.561500 -0.344900
vn -0.702200 0.701500 0.121300
vn -0.831300 0.452800 -0.322400
vn -0.780100 0.009300 -0.625600
vn -0.163300 0.166800 -0.972400
vn -0.166300 0.336700 -0.926800
vn -0.528000 0.058900 -0.847200
vn -0.418900 0.540900 -0.729300
vn -0.037800 0.434900 -0.899600
vn -0.433100 0.161300 -0.886800
vn -0.771100 -0.066000 -0.633200
vn -0.038800 0.775800 -0.629700
vn -0.170800 0.912600 -0.371500
vn -0.484100 0.841700 -0.239100
vn -0.236700 0.959500 -0.152600
vn -0.544300 0.838700 0.015100
vn -0.724600 0.176800 -0.666100
vn -0.250300 -0.029000 0.967700
vn -0.348900 -0.082000 0.933600
vn -0.240900 0.113400 0.963900
vn -0.333000 0.588500 0.736700
vn -0.390900 0.054400 0.918800
vn -0.505500 0.276800 0.817200
vn -0.401500 0.061000 0.913800
vn -0.941100 0.272300 -0.200400
vn -0.529300 0.801900 0.277100
vn -0.567300 0.736900 0.367400
vn -0.942900 -0.029900 0.331800
vn -0.578800 0.193200 0.792200
vn -0.780100 0.485200 0.394800
vn -0.446500 0.467900 0.762700
vn -0.344500 0.857500 0.381900
vn -0.393600 0.694600 0.602100
vn -0.578300 0.650300 0.492600
vn -0.382100 0.782700 0.491300
vn -0.406800 0.451900 0.793900
vn -0.287400 0.167200 0.943100
vn -0.634500 0.699500 0.328700
vn -0.499200 0.692800 0.520300
vn -0.494100 0.637200 0.591400
vn -0.364100 -0.191900 -0.911400
vn -0.459900 -0.647000 -0.608100
vn -0.205100 0.048700 -0.977500
vn -0.539500 -0.096100 -0.836500
vn -0.780300 -0.601500 -0.171200
vn -0.799700 -0.334500 -0.498600
vn -0.696500 -0.649700 -0.304500
vn -0.911000 -0.214100 -0.352500
vn -0.255800 -0.962900 0.086300
vn -0.312000 -0.938200 -0.149800
vn -0.611300 -0.763700 -0.207700
vn -0.518600 -0.853700 -0.046700
vn -0.621400 -0.783400 0.000400
vn -0.746500 -0.605200 -0.276500
vn -0.755700 -0.114100 -0.644900
vn -0.709700 -0.425400 -0.561600
vn -0.557500 -0.182400 0.809900
vn -0.862400 -0.440400 0.249800
vn -0.708700 -0.583500 0.396600
vn -0.226300 -0.156500 0.961400
vn -0.178700 -0.434600 0.882700
vn -0.197100 -0.956300 0.215600
vn -0.315200 -0.916100 0.247600
vn -0.160300 -0.914100 0.372400
vn -0.153800 -0.715700 0.681300
vn -0.211200 -0.750000 0.626800
vn -0.488100 -0.762100 0.425400
vn -0.401200 -0.489100 0.774500
s 1
f 1/1/1 2/2/2 3/3/3
f 4/1/4 3/2/3 5/3/5
f 6/1/6 1/2/1 4/3/4
f 1/1/1 3/2/3 4/3/4
f 7/1/7 8/2/8 9/3/9
f 10/1/10 11/2/11 7/3/7
f 7/1/7 11/2/11 8/3/8
f 11/1/11 12/2/12 8/3/8
f 13/1/13 14/2/14 15/3/15
f 16/1/16 14/2/14 10/3/10
f 13/1/13 11/2/11 14/3/14
f 10/1/10 14/2/14 11/3/11
f 17/1/17 12/2/12 6/3/6
f 6/1/6 12/2/12 13/3/13
f 13/1/13 12/2/12 11/3/11
f 18/1/18 19/2/19 16/3/16
f 16/1/16 19/2/19 14/3/14
f 20/1/20 21/2/21 18/3/18
f 18/1/18 21/2/21 19/3/19
f 21/1/21 22/2/22 19/3/19
f 20/1/20 23/2/23 21/3/21
f 22/1/22 21/2/21 24/3/24
f 21/1/21 23/2/23 24/3/24
f 1/1/1 6/2/6 13/3/13
f 19/1/19 22/2/22 15/3/15
f 15/1/15 1/2/1 13/3/13
f 19/1/19 15/2/15 14/3/14
f 22/1/22 24/2/24 2/3/2
f 2/1/2 1/2/1 22/3/22
f 22/1/22 1/2/1 15/3/15
f 25/1/25 26/2/26 27/3/27
f 28/1/28 27/2/27 26/3/26
f 29/1/29 30/2/30 31/3/31
f 28/1/28 32/2/32 29/3/29
f 33/1/33 34/2/34 32/3/32
f 29/1/29 32/2/32 30/3/30
f 32/1/32 34/2/34 30/3/30
f 26/1/26 25/2/25 33/3/33
f 28/1/28 26/2/26 32/3/32
f 32/1/32 26/2/26 33/3/33
f 6/1/6 4/2/4 35/3/35
f 3/1/3 2/2/2 36/3/36
f 5/1/5 36/2/36 37/3/37
f 3/1/3 36/2/36 5/3/5
f 38/1/38 39/2/39 40/3/40
f 37/1/37 41/2/41 38/3/38
f 41/1/41 39/2/39 38/3/38
f 4/1/4 5/2/5 35/3/35
f 37/1/37 38/2/38 5/3/5
f 5/1/5 38/2/38 35/3/35
f 20/1/20 42/2/42 23/3/23
f 23/1/23 43/2/43 24/3/24
f 42/1/42 43/2/43 23/3/23
f 31/1/31 44/2/44 45/3/45
f 42/1/42 45/2/45 43/3/43
f 45/1/45 44/2/44 43/3/43
f 44/1/44 46/2/46 43/3/43
f 43/1/43 46/2/46 24/3/24
f 37/1/37 47/2/47 41/3/41
f 48/1/48 41/2/41 47/3/47
f 25/1/25 48/2/48 33/3/33
f 39/1/39 41/2/41 25/3/25
f 41/1/41 48/2/48 25/3/25
f 36/1/36 2/2/2 49/3/49
f 24/1/24 49/2/49 2/3/2
f 44/1/44 50/2/50 46/3/46
f 36/1/36 49/2/49 50/3/50
f 24/1/24 46/2/46 49/3/49
f 50/1/50 49/2/49 46/3/46
f 37/1/37 36/2/36 47/3/47
f 31/1/31 30/2/30 44/3/44
f 44/1/44 30/2/30 51/3/51
f 34/1/34 51/2/51 30/3/30
f 44/1/44 51/2/51 50/3/50
f 33/1/33 48/2/48 34/3/34
f 51/1/51 34/2/34 48/3/48
f 36/1/36 50/2/50 47/3/47
f 51/1/51 48/2/48 50/3/50
f 50/1/50 48/2/48 47/3/47
f 12/1/12 17/2/17 8/3/8
f 52/1/52 53/2/53 54/3/54
f 54/1/54 53/2/53 55/3/55
f 9/1/9 56/2/56 52/3/52
f 56/1/56 17/2/17 57/3/57
f 52/1/52 56/2/56 53/3/53
f 56/1/56 57/2/57 53/3/53
f 9/1/9 8/2/8 56/3/56
f 56/1/56 8/2/8 17/3/17
f 58/1/58 59/2/59 60/3/60
f 60/1/60 59/2/59 61/3/61
f 6/1/6 62/2/62 61/3/61
f 63/1/63 6/2/6 61/3/61
f 64/1/64 65/2/65 66/3/66
f 67/1/67 54/2/54 55/3/55
f 55/1/55 68/2/68 69/3/69
f 67/1/67 69/2/69 64/3/64
f 67/1/67 55/2/55 69/3/69
f 70/1/70 71/2/71 58/3/58
f 58/1/58 71/2/71 72/3/72
f 72/1/72 71/2/71 68/3/68
f 64/1/64 69/2/69 65/3/65
f 69/1/69 68/2/68 65/3/65
f 68/1/68 71/2/71 65/3/65
f 6/1/6 63/2/63 17/3/17
f 17/1/17 59/2/59 57/3/57
f 63/1/63 61/2/61 17/3/17
f 61/1/61 59/2/59 17/3/17
f 59/1/59 58/2/58 72/3/72
f 53/1/53 57/2/57 73/3/73
f 59/1/59 73/2/73 57/3/57
f 68/1/68 55/2/55 73/3/73
f 53/1/53 73/2/73 55/3/55
f 68/1/68 73/2/73 72/3/72
f 73/1/73 59/2/59 72/3/72
f 6/1/6 35/2/35 62/3/62
f 40/1/40 39/2/39 74/3/74
f 62/1/62 60/2/60 61/3/61
f 75/1/75 60/2/60 76/3/76
f 62/1/62 76/2/76 60/3/60
f 38/1/38 40/2/40 35/3/35
f 62/1/62 35/2/35 40/3/40
f 74/1/74 76/2/76 40/3/40
f 76/1/76 62/2/62 40/3/40
f 28/1/28 77/2/77 27/3/27
f 78/1/78 79/2/79 27/3/27
f 77/1/77 80/2/80 27/3/27
f 81/1/81 78/2/78 80/3/80
f 80/1/80 78/2/78 27/3/27
f 27/1/27 79/2/79 25/3/25
f 82/1/82 65/2/65 71/3/71
f 66/1/66 65/2/65 82/3/82
f 71/1/71 70/2/70 83/3/83
f 84/1/84 82/2/82 83/3/83
f 71/1/71 83/2/83 82/3/82
f 81/1/81 85/2/85 86/3/86
f 66/1/66 84/2/84 85/3/85
f 85/1/85 84/2/84 86/3/86
f 66/1/66 82/2/82 84/3/84
f 25/1/25 74/2/74 39/3/39
f 74/1/74 25/2/25 79/3/79
f 81/1/81 86/2/86 78/3/78
f 83/1/83 87/2/87 84/3/84
f 86/1/86 84/2/84 87/3/87
f 87/1/87 78/2/78 86/3/86
f 58/1/58 60/2/60 70/3/70
f 75/1/75 70/2/70 60/3/60
f 74/1/74 75/2/75 76/3/76
f 83/1/83 70/2/70 88/3/88
f 75/1/75 88/2/88 70/3/70
f 74/1/74 79/2/79 89/3/89
f 78/1/78 89/2/89 79/3/79
f 83/1/83 88/2/88 87/3/87
f 78/1/78 87/2/87 89/3/89
f 88/1/88 89/2/89 87/3/87
f 88/1/88 75/2/75 89/3/89
f 74/1/74 89/2/89 75/3/75
f 90/1/90 91/2/91 92/3/92
f 93/1/93 90/2/90 94/3/94
f 94/1/94 92/2/92 95/3/95
f 94/1/94 90/2/90 92/3/92
f 9/1/9 96/2/96 7/3/7
f 7/1/7 97/2/97 10/3/10
f 96/1/96 97/2/97 7/3/7
f 96/1/96 98/2/98 97/3/97
f 99/1/99 100/2/100 101/3/101
f 10/1/10 100/2/100 16/3/16
f 100/1/100 97/2/97 101/3/101
f 97/1/97 100/2/100 10/3/10
f 95/1/95 98/2/98 102/3/102
f 101/1/101 98/2/98 95/3/95
f 97/1/97 98/2/98 101/3/101
f 16/1/16 103/2/103 18/3/18
f 100/1/100 103/2/103 16/3/16
f 18/1/18 104/2/104 20/3/20
f 103/1/103 104/2/104 18/3/18
f 103/1/103 105/2/105 104/3/104
f 104/1/104 106/2/106 20/3/20
f 107/1/107 104/2/104 105/3/105
f 107/1/107 106/2/106 104/3/104
f 101/1/101 95/2/95 108/3/108
f 99/1/99 105/2/105 103/3/103
f 108/1/108 99/2/99 101/3/101
f 100/1/100 99/2/99 103/3/103
f 91/1/91 107/2/107 105/3/105
f 92/1/92 91/2/91 105/3/105
f 99/1/99 92/2/92 105/3/105
f 92/1/92 108/2/108 95/3/95
f 108/1/108 92/2/92 99/3/99
f 109/1/109 110/2/110 111/3/111
f 110/1/110 109/2/109 28/3/28
f 31/1/31 112/2/112 29/3/29
f 29/1/29 113/2/113 28/3/28
f 113/1/113 114/2/114 115/3/115
f 112/1/112 113/2/113 29/3/29
f 112/1/112 114/2/114 113/3/113
f 115/1/115 111/2/111 110/3/110
f 113/1/113 110/2/110 28/3/28
f 115/1/115 110/2/110 113/3/113
f 116/1/116 94/2/94 95/3/95
f 117/1/117 91/2/91 90/3/90
f 118/1/118 117/2/117 93/3/93
f 93/1/93 117/2/117 90/3/90
f 119/1/119 120/2/120 121/3/121
f 121/1/121 122/2/122 118/3/118
f 121/1/121 120/2/120 122/3/122
f 116/1/116 93/2/93 94/3/94
f 93/1/93 121/2/121 118/3/118
f 116/1/116 121/2/121 93/3/93
f 106/1/106 42/2/42 20/3/20
f 107/1/107 123/2/123 106/3/106
f 106/1/106 123/2/123 42/3/42
f 45/1/45 124/2/124 31/3/31
f 123/1/123 45/2/45 42/3/42
f 123/1/123 124/2/124 45/3/45
f 123/1/123 125/2/125 124/3/124
f 107/1/107 125/2/125 123/3/123
f 122/1/122 126/2/126 118/3/118
f 126/1/126 122/2/122 127/3/127
f 115/1/115 127/2/127 128/3/128
f 128/1/128 122/2/122 120/3/120
f 128/1/128 127/2/127 122/3/122
f 129/1/129 91/2/91 117/3/117
f 91/1/91 129/2/129 107/3/107
f 125/1/125 130/2/130 124/3/124
f 130/1/130 129/2/129 117/3/117
f 129/1/129 125/2/125 107/3/107
f 125/1/125 129/2/129 130/3/130
f 126/1/126 117/2/117 118/3/118
f 124/1/124 112/2/112 31/3/31
f 131/1/131 112/2/112 124/3/124
f 112/1/112 131/2/131 114/3/114
f 130/1/130 131/2/131 124/3/124
f 114/1/114 127/2/127 115/3/115
f 127/1/127 114/2/114 131/3/131
f 126/1/126 130/2/130 117/3/117
f 130/1/130 127/2/127 131/3/131
f 126/1/126 127/2/127 130/3/130
f 54/1/54 132/2/132 52/3/52
f 133/1/133 132/2/132 54/3/54
f 52/1/52 134/2/134 9/3/9
f 135/1/135 98/2/98 134/3/134
f 132/1/132 134/2/134 52/3/52
f 132/1/132 135/2/135 134/3/134
f 134/1/134 96/2/96 9/3/9
f 98/1/98 96/2/96 134/3/134
f 136/1/136 137/2/137 138/3/138
f 137/1/137 95/2/95 102/3/102
f 137/1/137 139/2/139 95/3/95
f 66/1/66 140/2/140 64/3/64
f 133/1/133 54/2/54 67/3/67
f 141/1/141 142/2/142 133/3/133
f 64/1/64 141/2/141 67/3/67
f 141/1/141 133/2/133 67/3/67
f 138/1/138 143/2/143 144/3/144
f 145/1/145 143/2/143 138/3/138
f 142/1/142 143/2/143 145/3/145
f 140/1/140 141/2/141 64/3/64
f 140/1/140 142/2/142 141/3/141
f 140/1/140 143/2/143 142/3/142
f 137/1/137 102/2/102 146/3/146
f 135/1/135 146/2/146 98/3/98
f 146/1/146 102/2/102 98/3/98
f 145/1/145 138/2/138 137/3/137
f 147/1/147 135/2/135 132/3/132
f 135/1/135 147/2/147 146/3/146
f 147/1/147 133/2/133 142/3/142
f 133/1/133 147/2/147 132/3/132
f 145/1/145 147/2/147 142/3/142
f 145/1/145 137/2/137 147/3/147
f 137/1/137 146/2/146 147/3/147
f 139/1/139 116/2/116 95/3/95
f 148/1/148 120/2/120 119/3/119
f 137/1/137 136/2/136 139/3/139
f 149/1/149 136/2/136 150/3/150
f 136/1/136 149/2/149 139/3/139
f 116/1/116 119/2/119 121/3/121
f 119/1/119 116/2/116 139/3/139
f 119/1/119 149/2/149 148/3/148
f 119/1/119 139/2/139 149/3/149
f 109/1/109 77/2/77 28/3/28
f 109/1/109 151/2/151 152/3/152
f 109/1/109 80/2/80 77/3/77
f 80/1/80 152/2/152 81/3/81
f 109/1/109 152/2/152 80/3/80
f 115/1/115 128/2/128 111/3/111
f 111/1/111 151/2/151 109/3/109
f 143/1/143 140/2/140 153/3/153
f 153/1/153 140/2/140 66/3/66
f 154/1/154 144/2/144 143/3/143
f 154/1/154 153/2/153 155/3/155
f 153/1/153 154/2/154 143/3/143
f 156/1/156 85/2/85 81/3/81
f 85/1/85 155/2/155 66/3/66
f 156/1/156 155/2/155 85/3/85
f 155/1/155 153/2/153 66/3/66
f 120/1/120 148/2/148 128/3/128
f 151/1/151 111/2/111 148/3/148
f 148/1/148 111/2/111 128/3/128
f 152/1/152 156/2/156 81/3/81
f 155/1/155 157/2/157 154/3/154
f 157/1/157 155/2/155 156/3/156
f 156/1/156 152/2/152 157/3/157
f 144/1/144 136/2/136 138/3/138
f 136/1/136 144/2/144 150/3/150
f 149/1/149 150/2/150 148/3/148
f 158/1/158 144/2/144 154/3/154
f 144/1/144 158/2/158 150/3/150
f 159/1/159 151/2/151 148/3/148
f 151/1/151 159/2/159 152/3/152
f 157/1/157 158/2/158 154/3/154
f 159/1/159 157/2/157 152/3/152
f 157/1/157 159/2/159 158/3/158
f 159/1/159 150/2/150 158/3/158
f 150/1/150 159/2/159 148/3/148
